<?xml version="1.0" encoding="iso-8859-1"?>
<!-- Uploaded to: SVG Repo, www.svgrepo.com, Generator: SVG Repo Mixer Tools -->
<svg height="800px" width="800px" version="1.1" id="Layer_1" xmlns="http://www.w3.org/2000/svg" xmlns:xlink="http://www.w3.org/1999/xlink" 
	 viewBox="0 0 473.931 473.931" xml:space="preserve">
<circle style="fill:#3CB881;" cx="236.966" cy="236.966" r="236.966"/>
<path style="fill:#CBBD7D;" d="M363.037,110.098c5.545,5.553,6.118,13.972,1.272,18.825l-45.485,45.485
	c-4.846,4.838-13.272,4.277-18.821-1.272l0,0c-5.549-5.553-6.118-13.987-1.276-18.825l45.485-45.485
	C349.058,103.972,357.488,104.549,363.037,110.098L363.037,110.098z"/>
<path style="fill:#C0B8AA;" d="M341.525,127.732c-7.281-7.285-94.038-10.758-108.99,4.195L85.727,278.731
	c-14.948,14.952-14.035,31.098,0.917,46.042l58.656,58.663c14.952,14.952,30.174,14.945,45.129-0.007l146.808-146.804
	C352.186,221.669,348.811,135.01,341.525,127.732z M291.363,181.722c-5.818-5.818-5.818-15.244,0-21.062
	c5.815-5.811,15.24-5.811,21.059,0.007c5.815,5.811,5.815,15.236,0,21.055C306.604,187.541,297.178,187.541,291.363,181.722z"/>
<path style="fill:#E2DDD0;" d="M337.858,127.358c-5.815-5.811-91.112-10.189-105.705,4.408L87.984,275.94
	c-14.589,14.585-14.589,29.451,0,44.041l57.256,57.26c14.593,14.593,29.455,14.585,44.044,0l144.17-144.174
	C348.047,218.47,343.673,133.177,337.858,127.358z M288.677,179.481c-5.68-5.673-5.68-14.873-0.007-20.55
	c5.68-5.68,14.888-5.68,20.565,0c5.672,5.673,5.672,14.881-0.011,20.557C303.55,185.157,294.349,185.15,288.677,179.481z"/>
<path style="fill:#EAE8E4;" d="M303.644,155.5c2.039,0.696,3.966,1.796,5.59,3.427c5.672,5.673,5.672,14.881-0.011,20.557
	c-5.676,5.673-14.877,5.665-20.546-0.007c-1.841-1.833-3.023-4.064-3.667-6.402c-66.749,63.647-172.873,171.062-172.873,171.062
	l33.103,33.1c14.593,14.593,29.455,14.585,44.044,0l144.17-144.174c14.593-14.593,10.215-99.886,4.404-105.705
	C336.485,125.985,323.172,137.349,303.644,155.5z"/>
<g>
	<path style="fill:#C0B8AA;" d="M213.946,211.585c3.289,3.289,3.289,8.617,0,11.906l-79.374,79.37
		c-3.289,3.289-8.617,3.289-11.906,0l0,0c-3.289-3.289-3.289-8.617,0-11.906l79.374-79.374
		C205.329,208.296,210.657,208.296,213.946,211.585L213.946,211.585z"/>
	<path style="fill:#C0B8AA;" d="M235.114,232.749c3.289,3.289,3.285,8.625,0,11.906l-79.374,79.374
		c-3.289,3.289-8.621,3.289-11.91,0l0,0c-3.289-3.289-3.285-8.617,0-11.906l79.378-79.374
		C226.492,229.46,231.824,229.46,235.114,232.749L235.114,232.749z"/>
	<path style="fill:#C0B8AA;" d="M256.281,253.912c3.289,3.289,3.285,8.625,0,11.914L176.903,345.2
		c-3.285,3.282-8.617,3.289-11.906,0l0,0c-3.289-3.289-3.285-8.625,0-11.906l79.374-79.381
		C247.66,250.631,252.992,250.623,256.281,253.912L256.281,253.912z"/>
</g>
<circle style="fill:#0EA24A;" cx="331.557" cy="362.539" r="57.062"/>
<g>
	<path style="fill:#FFFFFF;" d="M369.903,362.374c0,4.969-4.022,8.995-8.999,8.995h-58.559c-4.965,0-8.995-4.026-8.995-8.995l0,0
		c0-4.969,4.03-8.995,8.995-8.995h58.559C365.881,353.376,369.903,357.402,369.903,362.374L369.903,362.374z"/>
	<path style="fill:#FFFFFF;" d="M331.625,400.653c-4.965,0-8.991-4.026-8.991-9.003v-58.559c0-4.962,4.026-8.995,8.991-8.995l0,0
		c4.969,0,8.999,4.034,8.999,8.995v58.559C340.624,396.627,336.594,400.653,331.625,400.653L331.625,400.653z"/>
</g>
<path style="fill:#F3F0ED;" d="M299.128,148.757c-11.285,0-20.445,9.156-20.445,20.441c0,11.293,9.16,20.449,20.445,20.449
	c11.293,0,20.434-9.156,20.434-20.449C319.561,157.914,310.42,148.757,299.128,148.757z M299.128,183.717
	c-8.019,0-14.522-6.503-14.522-14.522s6.503-14.522,14.522-14.522s14.514,6.503,14.514,14.522S307.146,183.717,299.128,183.717z"/>
<path style="fill:#DFD48A;" d="M365.099,112.163c4.864,4.861,4.864,12.744,0,17.612L319.4,175.474
	c-4.861,4.861-12.744,4.861-17.612-0.007l0,0c-4.864-4.861-4.868-12.752-0.004-17.612l45.698-45.698
	C352.347,107.291,360.23,107.299,365.099,112.163L365.099,112.163z"/>
</svg>