<!DOCTYPE svg PUBLIC "-//W3C//DTD SVG 1.1//EN" "http://www.w3.org/Graphics/SVG/1.1/DTD/svg11.dtd">
<!-- Uploaded to: SVG Repo, www.svgrepo.com, Transformed by: SVG Repo Mixer Tools -->
<svg width="800px" height="800px" viewBox="-10.68 0 92.72059 92.72059" xmlns="http://www.w3.org/2000/svg" fill="#000000">
<g id="SVGRepo_bgCarrier" stroke-width="0"/>
<g id="SVGRepo_tracerCarrier" stroke-linecap="round" stroke-linejoin="round"/>
<g id="SVGRepo_iconCarrier"> <title>Asset 10</title> <g id="Layer_2" data-name="Layer 2"> <g id="Layer_1-2" data-name="Layer 1"> <g id="Passport"> <path id="Base" d="M0,8.50006A8.50005,8.50005,0,0,1,8.50006,0H62.85448a8.5,8.5,0,0,1,8.50006,8.50006V83.83413a8.5,8.5,0,0,1-8.50006,8.50006H8.50006A8.5,8.5,0,0,1,0,83.83413Z" style="fill:#2267b3"/> <g id="Flag"> <path id="Flag-2" data-name="Flag" d="M30.09687,84.47856a1.24666,1.24666,0,0,1-1.24666-1.24666V76.71071a1.24665,1.24665,0,0,1,1.24666-1.24665H41.12743a1.24666,1.24666,0,0,1,1.24667,1.24665V83.2319a1.24667,1.24667,0,0,1-1.24667,1.24666Z" style="fill:#fdf6cb"/> <path id="Rectangle" d="M42.37532,79.40711v1.01414H28.85144V79.40711Z" style="fill:#98c6e8"/> <path id="Ellipse" d="M37.68011,79.91545a2.06777,2.06777,0,1,1-2.06769-2.0846A2.07619,2.07619,0,0,1,37.68011,79.91545Z" style="fill:#98c6e8"/> </g> <path id="Circle" d="M46.56186,46.25951A10.98538,10.98538,0,1,1,35.57649,35.27414,10.98537,10.98537,0,0,1,46.56186,46.25951Z" style="fill:#fff8c9"/> <path id="Passport-2" data-name="Passport" d="M15.40479,19.13993h.53577q.89017,0,.89019-.77478t-.89019-.77481h-.53577Zm0,3.36293H13.78927V16.288h2.57165a2.18508,2.18508,0,0,1,1.599.544,2.03777,2.03777,0,0,1,.56047,1.53312A2.03774,2.03774,0,0,1,17.96,19.89824a2.18509,2.18509,0,0,1-1.599.544h-.95613Zm7.004-2.30789-.72533-2.06886L20.95811,20.195Zm.42861,1.22812H20.5295l-.37092,1.07977H18.43591L20.80149,16.288h1.76389L24.931,22.50286H23.2083Zm6.21283-3.54426a1.905,1.905,0,0,0-.52752-.31322,1.35427,1.35427,0,0,0-.511-.10715.8292.8292,0,0,0-.511.14837.46223.46223,0,0,0-.19782.38739.38532.38532,0,0,0,.09891.272.93777.93777,0,0,0,.2555.18957,2.78853,2.78853,0,0,0,.36268.13189q.20606.05767.40388.12362a2.4446,2.4446,0,0,1,1.15395.70887,1.7096,1.7096,0,0,1,.3709,1.1457,2.18945,2.18945,0,0,1-.16484.86544,1.78,1.78,0,0,1-.46983.66765,2.10667,2.10667,0,0,1-.75829.42037,3.045,3.045,0,0,1-1.01384.1566,3.74372,3.74372,0,0,1-2.18426-.70061L26.05,20.673a2.809,2.809,0,0,0,.71709.47806,1.72344,1.72344,0,0,0,.70061.15659.8204.8204,0,0,0,.58521-.18132.54716.54716,0,0,0,.19784-.41213.52981.52981,0,0,0-.04947-.239.48547.48547,0,0,0-.16484-.18957,1.20549,1.20549,0,0,0-.305-.16484q-.18135-.07419-.4451-.16486-.31323-.09889-.61818-.21431a2.1041,2.1041,0,0,1-.53577-.32143,1.56109,1.56109,0,0,1-.37914-.49457,1.83721,1.83721,0,0,1-.14013-.76654,2.2245,2.2245,0,0,1,.14835-.83249,1.88454,1.88454,0,0,1,.42861-.64291,1.929,1.929,0,0,1,.67589-.42037,2.58951,2.58951,0,0,1,.89843-.14837,3.79926,3.79926,0,0,1,.96437.13188,4.11634,4.11634,0,0,1,.96437.37091Zm5.32857,0a1.90205,1.90205,0,0,0-.5275-.31322,1.35351,1.35351,0,0,0-.511-.10715.82924.82924,0,0,0-.511.14837.46223.46223,0,0,0-.19782.38739.38536.38536,0,0,0,.09891.272.93777.93777,0,0,0,.2555.18957,2.787,2.787,0,0,0,.36272.13189q.20591.05767.40374.12362a2.44325,2.44325,0,0,1,1.154.70887,1.70937,1.70937,0,0,1,.37108,1.1457,2.19,2.19,0,0,1-.16488.86544,1.78,1.78,0,0,1-.46985.66765,2.10777,2.10777,0,0,1-.75829.42037,3.04512,3.04512,0,0,1-1.01388.1566,3.74372,3.74372,0,0,1-2.18426-.70061l.69238-1.3023a2.80881,2.80881,0,0,0,.7171.47806,1.72336,1.72336,0,0,0,.7006.15659.82013.82013,0,0,0,.58515-.18132.54677.54677,0,0,0,.19794-.41213.52873.52873,0,0,0-.04959-.239.485.485,0,0,0-.16468-.18957,1.20753,1.20753,0,0,0-.30505-.16484q-.18135-.07419-.4451-.16486-.3132-.09889-.61818-.21431a2.1041,2.1041,0,0,1-.53577-.32143,1.56124,1.56124,0,0,1-.37914-.49457,1.83721,1.83721,0,0,1-.14013-.76654,2.2245,2.2245,0,0,1,.14835-.83249,1.88454,1.88454,0,0,1,.42861-.64291,1.9291,1.9291,0,0,1,.6759-.42037,2.58945,2.58945,0,0,1,.89842-.14837,3.79988,3.79988,0,0,1,.96447.13188,4.11988,4.11988,0,0,1,.9643.37091Zm3.53185,1.2611h.53576q.89012,0,.89012-.77478t-.89012-.77481h-.53576Zm0,3.36293H36.29508V16.288h2.57159a2.18463,2.18463,0,0,1,1.599.544,2.03765,2.03765,0,0,1,.56055,1.53312,2.03763,2.03763,0,0,1-.56055,1.53309,2.18464,2.18464,0,0,1-1.599.544h-.956Zm5.38021-3.10741a1.65418,1.65418,0,0,0,.14009.68412,1.72694,1.72694,0,0,0,.37915.544,1.78308,1.78308,0,0,0,.55229.36268,1.86561,1.86561,0,0,0,.67585.12362,1.80176,1.80176,0,0,0,.66759-.12362,1.76115,1.76115,0,0,0,.56056-.36268,1.68172,1.68172,0,0,0,0-2.45625,1.65119,1.65119,0,0,0-.56056-.35444,1.70269,1.70269,0,0,0-.66759-.13188,1.76261,1.76261,0,0,0-.67585.13188,1.66772,1.66772,0,0,0-.55229.35444,1.72685,1.72685,0,0,0-.37915.544A1.65423,1.65423,0,0,0,43.29085,19.39545Zm-1.68973,0a3.19271,3.19271,0,0,1,2.04409-3.025,3.90241,3.90241,0,0,1,2.77778,0,3.178,3.178,0,0,1,1.08786.69236,3.14507,3.14507,0,0,1,.71717,1.0468,3.2169,3.2169,0,0,1,.25559,1.28583,3.27624,3.27624,0,0,1-.25559,1.29406,3.16748,3.16748,0,0,1-.71717,1.03855,3.28051,3.28051,0,0,1-1.08786.70063,4.02438,4.02438,0,0,1-2.77778,0,3.30064,3.30064,0,0,1-1.0798-.70063,3.23213,3.23213,0,0,1-.70891-1.03855A3.27629,3.27629,0,0,1,41.60112,19.39545Zm9.51837-.3297h.305a1.17866,1.17866,0,0,0,.73371-.19782.761.761,0,0,0,0-1.13746,1.17872,1.17872,0,0,0-.73371-.19781h-.305Zm3.55261,3.43711H52.66087l-1.54138-2.39031v2.39031H49.50394V16.288h2.51394a2.40843,2.40843,0,0,1,.90664.1566A1.69442,1.69442,0,0,1,53.9384,17.4667a2.06712,2.06712,0,0,1,.13183.74183,1.82555,1.82555,0,0,1-.34609,1.154,1.71272,1.71272,0,0,1-1.00562.59345Zm3.041-4.84658v4.84658H56.09758V17.65628H54.77067V16.288h4.26958v1.36824Z" style="fill:#fdf6cb"/> <path id="Stitching" d="M7.72805,0H8.88724V92.72059H7.72805Z" style="fill:#fff8c9"/> </g> </g> </g> </g>
</svg>