<?xml version="1.0" encoding="iso-8859-1"?>
<!-- Uploaded to: SVG Repo, www.svgrepo.com, Generator: SVG Repo Mixer Tools -->
<svg version="1.1" id="Layer_1" xmlns="http://www.w3.org/2000/svg" xmlns:xlink="http://www.w3.org/1999/xlink" 
	 viewBox="0 0 512 512" xml:space="preserve">
<circle style="fill:#FF8E31;" cx="256" cy="256" r="256"/>
<path style="fill:#ED7425;" d="M389.417,168.707c-0.038-0.074-0.113-0.148-0.182-0.22c-0.077-0.074-0.148-0.143-0.22-0.182
	c-2.596-2.486-5.96-3.73-9.288-3.73H132.283c-3.438,0-6.876,1.316-9.508,3.912c-2.596,2.634-3.914,6.072-3.914,9.508v156.017
	c0,3.331,1.242,6.692,3.694,9.285l0.443,0.443L289.06,509.801c114.929-14.828,205.906-105.805,220.746-220.726L389.417,168.707z"/>
<g>
	<path style="fill:#CEE2F2;" d="M379.712,164.575c3.428,0,6.881,1.308,9.505,3.93c2.604,2.619,3.922,6.065,3.922,9.505
		l-0.003,155.983c0.003,3.433-1.318,6.876-3.919,9.516c-2.629,2.614-6.077,3.919-9.505,3.919H132.296
		c-3.436,0-6.868-1.308-9.505-3.919c-2.609-2.639-3.93-6.083-3.93-9.516l0.005-155.978c-0.005-3.446,1.318-6.889,3.927-9.518
		c2.634-2.614,6.067-3.919,9.498-3.922H379.712z"/>
	<g>
		<rect x="153.019" y="306.867" style="fill:#03628A;" width="42.877" height="5.885"/>
		<rect x="207.386" y="306.867" style="fill:#03628A;" width="42.88" height="5.885"/>
		<rect x="261.734" y="306.867" style="fill:#03628A;" width="42.88" height="5.885"/>
		<rect x="316.109" y="306.867" style="fill:#03628A;" width="42.872" height="5.885"/>
	</g>
	<rect x="153.019" y="255.949" style="fill:#FFFFFF;" width="205.952" height="23.544"/>
	<g>
		<rect x="254.413" y="265.498" style="fill:#03628A;" width="11.771" height="4.426"/>
		<rect x="272.794" y="265.498" style="fill:#03628A;" width="35.315" height="4.426"/>
		<rect x="314.726" y="265.498" style="fill:#03628A;" width="35.313" height="4.426"/>
		<rect x="118.861" y="197.837" style="fill:#03628A;" width="274.278" height="41.838"/>
	</g>
</g>
</svg>