<?xml version="1.0" encoding="iso-8859-1"?>
<!-- Uploaded to: SVG Repo, www.svgrepo.com, Generator: SVG Repo Mixer Tools -->
<svg version="1.1" id="Layer_1" xmlns="http://www.w3.org/2000/svg" xmlns:xlink="http://www.w3.org/1999/xlink" 
	 viewBox="0 0 505 505" xml:space="preserve">
<circle style="fill:#54C0EB;" cx="252.5" cy="252.5" r="252.5"/>
<path style="fill:#CED5E0;" d="M462.7,286.7L295.4,89c-7-8.2-19.3-9.3-27.5-2.3L148.6,187.6c-8.2,7-9.3,19.3-2.3,27.5l167.2,197.7
	c7,8.2,19.3,9.3,27.5,2.3l119.3-100.9C468.6,307.2,469.6,294.9,462.7,286.7z"/>
<rect x="175.361" y="212.374" transform="matrix(-0.6458 -0.7635 0.7635 -0.6458 355.117 632.8896)" style="fill:#324A5E;" width="297.998" height="43.4"/>
<path style="fill:#FFFFFF;" d="M377.8,163.1l-273.1-2.3c-11.3-0.1-20.5,9-20.6,20.3l-1.2,147.3c-0.1,11.3,9,20.5,20.3,20.6
	l273.1,2.3c11.3,0.1,20.5-9,20.6-20.3l1.2-147.3C398.1,172.4,389.1,163.2,377.8,163.1z"/>
<path style="fill:#4CDBC4;" d="M382.7,278.9l0.4-43.2c-31.9-0.4-57.5-26.5-57.3-58.5l-169.1-1.4c-0.3,32-26.5,57.8-58.5,57.5
	l-0.4,43.1c32,0.3,57.8,26.4,57.6,58.5l169.1,1.4C324.7,304.4,350.8,278.8,382.7,278.9z"/>
<ellipse transform="matrix(0.0083 -1 1 0.0083 -17.6977 494.3711)" style="fill:#FFFFFF;" cx="240.409" cy="256.109" rx="60.202" ry="43.602"/>
<path style="fill:#4CDBC4;" d="M242.7,280.3l-0.1,7.5h-5.1l0.1-7.3c-4.7-0.1-9.1-1.2-13.1-3.3l0.1-9.6c1.3,1.1,3.3,2.1,6,3.1
	c2.7,0.9,5,1.5,7.1,1.7l0.1-12.6c-5.4-2.1-9.1-4.3-11-6.6c-2-2.4-2.9-5.2-2.9-8.6c0-3.6,1.3-6.7,3.9-9.3c2.6-2.5,6-4,10.3-4.4
	l0.1-6.5h5.1l-0.1,6.3c4.9,0.3,8.5,1.1,10.9,2.5l-0.1,9.4c-3.2-2-6.9-3.2-10.9-3.7l-0.1,13.2c5.1,1.9,8.7,4,10.9,6.4
	c2.2,2.4,3.3,5.2,3.2,8.6c0,3.8-1.3,6.9-3.8,9.3C250.8,278.5,247.2,279.9,242.7,280.3z M237.9,249.9l0.1-11c-3.2,0.6-4.8,2.2-4.9,5
	C233.1,246.3,234.7,248.3,237.9,249.9z M242.8,261.7l-0.1,10.5c3.3-0.5,5-2.1,5-4.9C247.8,265,246.1,263.1,242.8,261.7z"/>
</svg>