<?xml version="1.0" encoding="iso-8859-1"?>
<!-- Uploaded to: SVG Repo, www.svgrepo.com, Generator: SVG Repo Mixer Tools -->
<svg height="800px" width="800px" version="1.1" id="Layer_1" xmlns="http://www.w3.org/2000/svg" xmlns:xlink="http://www.w3.org/1999/xlink" 
	 viewBox="0 0 297 297" xml:space="preserve">
<circle style="fill:#FFC600;" cx="148.5" cy="148.5" r="148.5"/>
<path style="fill:#FFA219;" d="M153.84,296.894c72.232-2.554,131.328-56.688,141.578-126.698L212.608,87l-82.94,59.637
	l-25.418,8.447l-39.782,44.893l22.356,22.682l-1.819,4.287L153.84,296.894z"/>
<path style="fill:#008034;" d="M242.623,164.958l-29.435-77.07c-0.493-1.291-1.941-1.935-3.228-1.443L55.82,145.314
	c-1.29,0.493-1.937,1.938-1.443,3.228l29.435,77.07c0.381,0.997,1.33,1.609,2.336,1.609c0.297,0,0.599-0.054,0.892-0.166
	l154.141-58.87C242.47,167.692,243.116,166.247,242.623,164.958z"/>
<path style="fill:#6DC17D;" d="M232.14,151.523l-17.81-46.633c-7.025,1.524-14.257-1.711-17.804-7.963L72.822,144.173
	c1.524,7.024-1.711,14.257-7.963,17.804L82.67,208.61c7.024-1.524,14.257,1.711,17.804,7.963l123.703-47.246
	C222.654,162.302,225.888,155.07,232.14,151.523z"/>
<path style="fill:#005E18;" d="M231,113H66c-1.381,0-2.5,1.119-2.5,2.5V198c0,1.381,1.119,2.5,2.5,2.5h165
	c1.381,0,2.5-1.119,2.5-2.5v-82.5C233.5,114.119,232.381,113,231,113z"/>
<path style="fill:#008034;" d="M148.167,113H66c-1.381,0-2.5,1.119-2.5,2.5V198c0,1.381,1.119,2.5,2.5,2.5h82.167L148.167,113
	L148.167,113z"/>
<path style="fill:#6DC17D;" d="M81.958,118c-1.083,7.106-6.685,12.708-13.791,13.791v49.918c7.106,1.083,12.708,6.685,13.791,13.791
	h132.418c1.083-7.106,6.685-12.708,13.791-13.791v-49.918c-7.106-1.083-12.708-6.685-13.791-13.791H81.958z"/>
<path style="fill:#36B059;" d="M214.376,118h-66.209v77.5h66.209c1.083-7.106,6.685-12.708,13.791-13.791v-49.918
	C221.061,130.708,215.459,125.106,214.376,118z"/>
<ellipse style="fill:#008034;" cx="148.5" cy="156.75" rx="20" ry="30"/>
<path style="fill:#005E18;" d="M148.5,126.75c-0.112,0-0.222,0.01-0.333,0.013v59.975c0.111,0.003,0.221,0.013,0.333,0.013
	c11.046,0,20-13.431,20-30S159.546,126.75,148.5,126.75z"/>
</svg>