<?xml version="1.0" encoding="iso-8859-1"?>
<!-- Uploaded to: SVG Repo, www.svgrepo.com, Generator: SVG Repo Mixer Tools -->
<svg height="800px" width="800px" version="1.1" id="Layer_1" xmlns="http://www.w3.org/2000/svg" xmlns:xlink="http://www.w3.org/1999/xlink" 
	 viewBox="0 0 512.001 512.001" xml:space="preserve">
<g>
	<path style="fill:#CCCCCC;" d="M442.074,216.621L326.275,16.053c-8.577-14.856-26.879-20.404-40.8-12.367
		c-6.859,3.96-11.61,10.544-13.378,18.539c-1.711,7.735-0.401,15.896,3.689,22.979l115.797,200.568
		c5.91,10.236,16.435,16.052,26.965,16.052c4.752,0,9.507-1.186,13.836-3.686c6.859-3.96,11.61-10.544,13.378-18.539
		C447.473,231.865,446.163,223.704,442.074,216.621z"/>
	<path style="fill:#CCCCCC;" d="M226.526,3.686c-13.92-8.037-32.223-2.49-40.8,12.367L69.928,216.621
		c-4.09,7.083-5.4,15.243-3.689,22.979c1.768,7.995,6.519,14.578,13.378,18.539c4.329,2.5,9.083,3.686,13.836,3.686
		c10.529,0,21.055-5.817,26.965-16.052L236.215,45.203c4.09-7.083,5.4-15.243,3.689-22.979
		C238.136,14.23,233.385,7.647,226.526,3.686z"/>
</g>
<g>
	<path style="fill:#999999;" d="M424.421,186.045h-67.32l34.482,59.726c5.91,10.236,16.435,16.052,26.965,16.052
		c4.752,0,9.507-1.186,13.836-3.686c6.859-3.96,11.61-10.544,13.378-18.539c1.711-7.735,0.401-15.896-3.689-22.979L424.421,186.045z
		"/>
	<path style="fill:#999999;" d="M69.928,216.621c-4.09,7.083-5.4,15.243-3.689,22.979c1.768,7.995,6.519,14.578,13.378,18.539
		c4.329,2.5,9.083,3.686,13.836,3.686c10.529,0,21.055-5.817,26.965-16.052l34.482-59.726H87.581L69.928,216.621z"/>
</g>
<path style="fill:#FFD652;" d="M46.669,262.897l54.539,230.74c2.557,10.812,12.101,18.364,23.21,18.364h263.165
	c11.11,0,20.654-7.552,23.21-18.365l54.539-230.739H46.669z M342.922,371.548v82.681c0,8.781-7.119,15.9-15.9,15.9
	c-8.781,0-15.9-7.119-15.9-15.9v-82.681c0-8.781,7.119-15.9,15.9-15.9C335.803,355.648,342.922,362.767,342.922,371.548z
	 M271.901,371.548v82.681c0,8.781-7.119,15.9-15.9,15.9c-8.781,0-15.9-7.119-15.9-15.9v-82.681c0-8.781,7.119-15.9,15.9-15.9
	C264.782,355.648,271.901,362.767,271.901,371.548z M200.879,371.548v82.681c0,8.781-7.119,15.9-15.9,15.9
	c-8.781,0-15.9-7.119-15.9-15.9v-82.681c0-8.781,7.119-15.9,15.9-15.9C193.76,355.648,200.879,362.767,200.879,371.548z"/>
<g>
	<path style="fill:#FFFFFF;" d="M342.922,371.548v82.681c0,8.781-7.119,15.9-15.9,15.9c-8.781,0-15.9-7.119-15.9-15.9v-82.681
		c0-8.781,7.119-15.9,15.9-15.9C335.803,355.648,342.922,362.767,342.922,371.548z"/>
	<path style="fill:#FFFFFF;" d="M271.901,371.548v82.681c0,8.781-7.119,15.9-15.9,15.9c-8.781,0-15.9-7.119-15.9-15.9v-82.681
		c0-8.781,7.119-15.9,15.9-15.9C264.782,355.648,271.901,362.767,271.901,371.548z"/>
	<path style="fill:#FFFFFF;" d="M200.879,371.548v82.681c0,8.781-7.119,15.9-15.9,15.9c-8.781,0-15.9-7.119-15.9-15.9v-82.681
		c0-8.781,7.119-15.9,15.9-15.9C193.76,355.648,200.879,362.767,200.879,371.548z"/>
</g>
<polygon style="fill:#FB9D46;" points="465.333,262.897 46.669,262.897 60.826,322.788 451.176,322.788 "/>
<path style="fill:#458FDE;" d="M486.024,207.776H25.977c-13.152,0-23.85,10.699-23.85,23.85v44.521
	c0,13.152,10.699,23.85,23.85,23.85h460.048c13.152,0,23.85-10.699,23.85-23.85v-44.521
	C509.875,218.475,499.176,207.776,486.024,207.776z"/>
<path style="fill:#4F5AA8;" d="M35.517,276.147v-44.521c0-13.152,10.699-23.85,23.85-23.85H25.977
	c-13.152,0-23.85,10.699-23.85,23.85v44.521c0,13.152,10.699,23.85,23.85,23.85h33.391
	C46.217,299.997,35.517,289.298,35.517,276.147z"/>
<path id="SVGCleanerId_0" style="fill:#FF7452;" d="M256,161.135c-48.805,0-88.511,39.706-88.511,88.511
	s39.706,88.511,88.511,88.511s88.511-39.706,88.511-88.511S304.806,161.135,256,161.135z"/>
<g>
	<path id="SVGCleanerId_0_1_" style="fill:#FF7452;" d="M256,161.135c-48.805,0-88.511,39.706-88.511,88.511
		s39.706,88.511,88.511,88.511s88.511-39.706,88.511-88.511S304.806,161.135,256,161.135z"/>
</g>
<path style="fill:#E24642;" d="M283.561,310.597c-48.805,0-88.511-39.706-88.511-88.511c0-17.361,5.044-33.556,13.715-47.236
	c-24.779,15.704-41.275,43.353-41.275,74.797c0,48.805,39.706,88.511,88.511,88.511c31.444,0,59.093-16.496,74.797-41.275
	C317.118,305.554,300.922,310.597,283.561,310.597z"/>
<path style="fill:#FFFFFF;" d="M292.041,229.506h-15.9v-13.78c0-11.106-9.035-20.14-20.14-20.14s-20.14,9.035-20.14,20.14v13.78
	h-13.78c-11.106,0-20.14,9.035-20.14,20.14c0,11.106,9.035,20.14,20.14,20.14h13.78v15.9c0,11.106,9.035,20.14,20.14,20.14
	s20.14-9.035,20.14-20.14v-15.9h15.9c11.106,0,20.14-9.035,20.14-20.14S303.147,229.506,292.041,229.506z"/>
</svg>