<?xml version="1.0" encoding="iso-8859-1"?>
<!-- Uploaded to: SVG Repo, www.svgrepo.com, Generator: SVG Repo Mixer Tools -->
<svg height="800px" width="800px" version="1.1" id="Layer_1" xmlns="http://www.w3.org/2000/svg" xmlns:xlink="http://www.w3.org/1999/xlink" 
	 viewBox="0 0 464 464" xml:space="preserve">
<path style="fill:#E65039;" d="M296,464H72c-17.672,0-32-14.328-32-32V112c0-17.672,14.328-32,32-32h224V464z"/>
<path style="fill:#EB7361;" d="M72,80c-17.672,0-32,14.328-32,32v16.424c3.416-14,15.952-24.424,31-24.424h225v360l0,0V80H72z"/>
<circle style="fill:#FDC567;" cx="169.04" cy="217.04" r="79.792"/>
<path style="fill:#AD3C2B;" d="M169.008,304.808c-48.408,0-87.792-39.384-87.792-87.792s39.384-87.792,87.792-87.792
	s87.792,39.384,87.792,87.792S217.416,304.808,169.008,304.808z M169.008,145.224c-39.584,0-71.792,32.2-71.792,71.792
	s32.2,71.792,71.792,71.792s71.792-32.2,71.792-71.792S208.6,145.224,169.008,145.224z"/>
<ellipse style="fill:#FDC567;" cx="169.84" cy="217.04" rx="34.464" ry="79.792"/>
<g>
	<path style="fill:#AD3C2B;" d="M169.832,304.808c-24.208,0-42.464-37.744-42.464-87.792s18.256-87.792,42.464-87.792
		s42.464,37.744,42.464,87.792S194.04,304.808,169.832,304.808z M169.832,145.224c-11.048,0-26.464,27.312-26.464,71.792
		s15.408,71.792,26.464,71.792s26.464-27.312,26.464-71.792S180.888,145.224,169.832,145.224z"/>
	<path style="fill:#AD3C2B;" d="M240,200H96c-4.416,0-8-3.576-8-8s3.584-8,8-8h144c4.416,0,8,3.576,8,8S244.416,200,240,200z"/>
	<path style="fill:#AD3C2B;" d="M240,248H96c-4.416,0-8-3.576-8-8s3.584-8,8-8h144c4.416,0,8,3.576,8,8S244.416,248,240,248z"/>
	<path style="fill:#AD3C2B;" d="M136,392h-32c-4.416,0-8-3.576-8-8s3.584-8,8-8h32c4.416,0,8,3.576,8,8S140.416,392,136,392z"/>
	<path style="fill:#AD3C2B;" d="M232,392h-64c-4.416,0-8-3.576-8-8s3.584-8,8-8h64c4.416,0,8,3.576,8,8S236.416,392,232,392z"/>
	<path style="fill:#AD3C2B;" d="M232,424h-32c-4.416,0-8-3.576-8-8s3.584-8,8-8h32c4.416,0,8,3.576,8,8S236.416,424,232,424z"/>
	<path style="fill:#AD3C2B;" d="M168,424h-64c-4.416,0-8-3.576-8-8s3.584-8,8-8h64c4.416,0,8,3.576,8,8S172.416,424,168,424z"/>
</g>
<path style="fill:#A4C9E7;" d="M208,16v64h88v256h80V0H224C215.16,0,208,7.16,208,16z"/>
<path style="fill:#B6D4EC;" d="M224,0c-8.84,0-16,7.16-16,16v10.216c2.36-1.368,5.072-2.216,8-2.216h152v312h8V0H224z"/>
<path style="fill:#1C77C3;" d="M424,336h-48V0h32c8.84,0,16,7.16,16,16V336z"/>
<path style="fill:#4992CF;" d="M408,0h-32v24h32c8.84,0,16,7.16,16,16V16C424,7.16,416.84,0,408,0z"/>
<path style="fill:#A4C9E7;" d="M408,464H296V336h128v112C424,456.84,416.84,464,408,464z"/>
<g>
	<path style="fill:#92BEE2;" d="M376,440c-4.416,0-8-3.576-8-8v-64c0-4.424,3.584-8,8-8s8,3.576,8,8v64
		C384,436.424,380.416,440,376,440z"/>
	<path style="fill:#92BEE2;" d="M344,416c-4.416,0-8-3.576-8-8v-40c0-4.424,3.584-8,8-8s8,3.576,8,8v40
		C352,412.424,348.416,416,344,416z"/>
	<path style="fill:#92BEE2;" d="M336,200c-4.416,0-8-3.576-8-8V32c0-4.424,3.584-8,8-8s8,3.576,8,8v160
		C344,196.424,340.416,200,336,200z"/>
	<path style="fill:#92BEE2;" d="M336,312c-4.416,0-8-3.576-8-8v-64c0-4.424,3.584-8,8-8s8,3.576,8,8v64
		C344,308.424,340.416,312,336,312z"/>
</g>
</svg>